<?xml version="1.0" encoding="UTF-8"?>
<!DOCTYPE svg PUBLIC "-//W3C//DTD SVG 1.1//EN" "http://www.w3.org/Graphics/SVG/1.1/DTD/svg11.dtd">
<svg xmlns="http://www.w3.org/2000/svg" version="1.1" width="664px" height="670px" style="shape-rendering:geometricPrecision; text-rendering:geometricPrecision; image-rendering:optimizeQuality; fill-rule:evenodd; clip-rule:evenodd" xmlns:xlink="http://www.w3.org/1999/xlink">
<g><path style="opacity:1" fill="#fef6eb" d="M 118.5,-0.5 C 254.833,-0.5 391.167,-0.5 527.5,-0.5C 541.019,0.908467 554.686,2.2418 568.5,3.5C 570.292,3.36596 571.958,3.69929 573.5,4.5C 575.279,5.57352 576.946,6.90685 578.5,8.5C 580.071,7.69063 581.738,7.35729 583.5,7.5C 585.553,7.40206 587.22,8.06873 588.5,9.5C 588.604,11.9728 589.604,12.6394 591.5,11.5C 593.523,13.1733 595.856,13.8399 598.5,13.5C 612.169,19.8278 623.836,28.8278 633.5,40.5C 633.738,42.4044 634.738,43.7377 636.5,44.5C 638.262,45.2623 639.262,46.5956 639.5,48.5C 639.427,50.0269 640.094,51.0269 641.5,51.5C 641.738,53.4044 642.738,54.7377 644.5,55.5C 646.56,58.2402 648.226,61.2402 649.5,64.5C 649.157,66.4832 649.824,67.8166 651.5,68.5C 652.404,69.209 652.737,70.209 652.5,71.5C 653.589,76.7669 655.256,81.7669 657.5,86.5C 657.41,89.1522 658.076,91.4855 659.5,93.5C 661.266,100.765 662.6,108.099 663.5,115.5C 663.5,261.5 663.5,407.5 663.5,553.5C 662.596,554.209 662.263,555.209 662.5,556.5C 660.776,562.587 659.776,568.92 659.5,575.5C 659.634,577.292 659.301,578.958 658.5,580.5C 656.394,584.491 655.061,588.824 654.5,593.5C 654.443,594.609 654.11,595.609 653.5,596.5C 651.896,597.287 651.229,598.62 651.5,600.5C 648.675,608.831 644.342,616.164 638.5,622.5C 637.094,622.973 636.427,623.973 636.5,625.5C 636.167,626.5 635.5,627.167 634.5,627.5C 632.738,628.262 631.738,629.596 631.5,631.5C 630.5,633.167 629.167,634.5 627.5,635.5C 625.251,636.08 623.585,637.413 622.5,639.5C 621.833,640.833 620.833,641.833 619.5,642.5C 617.973,642.427 616.973,643.094 616.5,644.5C 611.176,649.167 605.176,652.834 598.5,655.5C 596.473,655.338 594.473,655.505 592.5,656C 592.833,656.333 593.167,656.667 593.5,657C 591.934,657.608 590.6,658.442 589.5,659.5C 588.07,660.537 586.403,661.204 584.5,661.5C 580.786,661.59 577.452,662.59 574.5,664.5C 571.321,665.793 567.988,666.46 564.5,666.5C 554.842,667.287 545.176,667.954 535.5,668.5C 441.623,668.164 347.79,667.164 254,665.5C 253.5,666 253,666.5 252.5,667C 210.998,667.167 169.665,667.667 128.5,668.5C 118.823,667.98 109.156,667.314 99.5,666.5C 95.4535,664.74 91.1201,663.74 86.5,663.5C 84.5615,661.837 82.2282,661.171 79.5,661.5C 77.3155,659.415 74.6489,658.415 71.5,658.5C 68.0884,657.925 65.0884,656.592 62.5,654.5C 61.3406,652.75 59.674,651.75 57.5,651.5C 56.5084,651.672 55.8417,651.338 55.5,650.5C 55.0269,649.094 54.0269,648.427 52.5,648.5C 52.0472,647.542 51.3805,646.708 50.5,646C 51.1667,645.667 51.8333,645.333 52.5,645C 49.5877,644.725 46.921,643.891 44.5,642.5C 43.7377,640.738 42.4044,639.738 40.5,639.5C 39.5,639.167 38.8333,638.5 38.5,637.5C 38.1667,636.5 37.5,635.833 36.5,635.5C 36.1667,634.5 35.5,633.833 34.5,633.5C 34.1667,632.5 33.5,631.833 32.5,631.5C 29.1195,629.12 26.4528,626.12 24.5,622.5C 24.4456,620.368 23.4456,619.035 21.5,618.5C 17.1559,613.153 13.8226,607.153 11.5,600.5C 11.5979,598.447 10.9313,596.78 9.5,595.5C 10.9617,592.358 10.295,590.358 7.5,589.5C 3.42652,577.798 0.759857,565.798 -0.5,553.5C -0.5,408.167 -0.5,262.833 -0.5,117.5C 0.460706,109.777 1.79404,102.11 3.5,94.5C 5.03954,92.1617 5.70621,89.4951 5.5,86.5C 5.5,86.1667 5.5,85.8333 5.5,85.5C 7.07394,83.8984 7.74061,81.8984 7.5,79.5C 7.55688,78.391 7.89022,77.391 8.5,76.5C 10.8337,74.8243 11.8337,72.491 11.5,69.5C 12.9922,65.1822 14.9922,61.1822 17.5,57.5C 18.9063,57.0269 19.573,56.0269 19.5,54.5C 20.9063,54.0269 21.573,53.0269 21.5,51.5C 22.9063,51.0269 23.573,50.0269 23.5,48.5C 25.5869,47.4154 26.9202,45.7488 27.5,43.5C 29.914,42.0892 31.5806,40.0892 32.5,37.5C 33.1667,36.1667 34.1667,35.1667 35.5,34.5C 38.7642,32.9059 41.4309,30.5725 43.5,27.5C 45.7488,26.9202 47.4154,25.5869 48.5,23.5C 52.2991,20.0482 56.6325,17.3815 61.5,15.5C 62.4959,15.5858 63.3292,15.2524 64,14.5C 64.6667,15.1667 65.3333,15.8333 66,16.5C 66.6695,14.4098 67.8361,12.7432 69.5,11.5C 73.3576,11.2299 76.691,9.89661 79.5,7.5C 86.3547,6.11968 93.0214,4.45301 99.5,2.5C 104.731,2.55565 109.731,1.88899 114.5,0.5C 116.099,0.767809 117.432,0.434475 118.5,-0.5 Z"/></g>
<g><path style="opacity:0.561" fill="#9b9893" d="M 114.5,0.5 C 109.731,1.88899 104.731,2.55565 99.5,2.5C 104.269,1.11101 109.269,0.444348 114.5,0.5 Z"/></g>
<g><path style="opacity:0.769" fill="#9c9993" d="M 527.5,-0.5 C 533.167,-0.5 538.833,-0.5 544.5,-0.5C 552.597,0.180747 560.597,1.51408 568.5,3.5C 554.686,2.2418 541.019,0.908467 527.5,-0.5 Z"/></g>
<g><path style="opacity:0.792" fill="#aba7a1" d="M 99.5,2.5 C 93.0214,4.45301 86.3547,6.11968 79.5,7.5C 85.7505,4.60397 92.4171,2.93731 99.5,2.5 Z"/></g>
<g><path style="opacity:1" fill="#bfbbb5" d="M 573.5,4.5 C 577.116,4.89934 580.45,5.89934 583.5,7.5C 581.738,7.35729 580.071,7.69063 578.5,8.5C 576.946,6.90685 575.279,5.57352 573.5,4.5 Z"/></g>
<g><path style="opacity:0.953" fill="#bab6ae" d="M 79.5,7.5 C 76.691,9.89661 73.3576,11.2299 69.5,11.5C 72.5299,9.59682 75.8632,8.26349 79.5,7.5 Z"/></g>
<g><path style="opacity:1" fill="#c5c1b9" d="M 588.5,9.5 C 592.116,10.3143 595.449,11.6477 598.5,13.5C 595.856,13.8399 593.523,13.1733 591.5,11.5C 589.604,12.6394 588.604,11.9728 588.5,9.5 Z"/></g>
<g><path style="opacity:1" fill="#cbc6bf" d="M 69.5,11.5 C 67.8361,12.7432 66.6695,14.4098 66,16.5C 65.3333,15.8333 64.6667,15.1667 64,14.5C 63.3292,15.2524 62.4959,15.5858 61.5,15.5C 63.6123,13.2295 66.279,11.8961 69.5,11.5 Z"/></g>
<g><path style="opacity:0.914" fill="#aba6a0" d="M 48.5,23.5 C 47.4154,25.5869 45.7488,26.9202 43.5,27.5C 44.5846,25.4131 46.2512,24.0798 48.5,23.5 Z"/></g>
<g><path style="opacity:0.898" fill="#b2afaa" d="M 43.5,27.5 C 41.4309,30.5725 38.7642,32.9059 35.5,34.5C 37.5691,31.4275 40.2358,29.0941 43.5,27.5 Z"/></g>
<g><path style="opacity:0.757" fill="#898681" d="M 32.5,37.5 C 31.5806,40.0892 29.914,42.0892 27.5,43.5C 28.4194,40.9108 30.086,38.9108 32.5,37.5 Z"/></g>
<g><path style="opacity:0.761" fill="#7e7a74" d="M 633.5,40.5 C 635.262,41.2623 636.262,42.5956 636.5,44.5C 634.738,43.7377 633.738,42.4044 633.5,40.5 Z"/></g>
<g><path style="opacity:0.91" fill="#938f8a" d="M 27.5,43.5 C 26.9202,45.7488 25.5869,47.4154 23.5,48.5C 24.0798,46.2512 25.4131,44.5846 27.5,43.5 Z"/></g>
<g><path style="opacity:0.478" fill="#7e7c76" d="M 23.5,48.5 C 23.573,50.0269 22.9063,51.0269 21.5,51.5C 21.427,49.9731 22.0937,48.9731 23.5,48.5 Z"/></g>
<g><path style="opacity:0.612" fill="#8f8c85" d="M 639.5,48.5 C 640.906,48.9731 641.573,49.9731 641.5,51.5C 640.094,51.0269 639.427,50.0269 639.5,48.5 Z"/></g>
<g><path style="opacity:0.471" fill="#79756f" d="M 21.5,51.5 C 21.573,53.0269 20.9063,54.0269 19.5,54.5C 19.427,52.9731 20.0937,51.9731 21.5,51.5 Z"/></g>
<g><path style="opacity:0.627" fill="#878277" d="M 641.5,51.5 C 643.262,52.2623 644.262,53.5956 644.5,55.5C 642.738,54.7377 641.738,53.4044 641.5,51.5 Z"/></g>
<g><path style="opacity:0.322" fill="#6a6662" d="M 19.5,54.5 C 19.573,56.0269 18.9063,57.0269 17.5,57.5C 17.427,55.9731 18.0937,54.9731 19.5,54.5 Z"/></g>
<g><path style="opacity:0.984" fill="#97938d" d="M 649.5,64.5 C 650.674,65.5137 651.34,66.847 651.5,68.5C 649.824,67.8166 649.157,66.4832 649.5,64.5 Z"/></g>
<g><path style="opacity:0.984" fill="#9e9a92" d="M 11.5,69.5 C 11.8337,72.491 10.8337,74.8243 8.5,76.5C 8.93482,73.8427 9.93482,71.5093 11.5,69.5 Z"/></g>
<g><path style="opacity:0.996" fill="#9e9a93" d="M 652.5,71.5 C 655.14,76.085 656.806,81.085 657.5,86.5C 655.256,81.7669 653.589,76.7669 652.5,71.5 Z"/></g>
<g><path style="opacity:0.729" fill="#74716a" d="M 7.5,79.5 C 7.74061,81.8984 7.07394,83.8984 5.5,85.5C 5.59495,83.2143 6.26162,81.2143 7.5,79.5 Z"/></g>
<g><path style="opacity:0.482" fill="#7e7b72" d="M 657.5,86.5 C 658.924,88.5145 659.59,90.8478 659.5,93.5C 658.076,91.4855 657.41,89.1522 657.5,86.5 Z"/></g>
<g><path style="opacity:0.533" fill="#8a857f" d="M 5.5,86.5 C 5.70621,89.4951 5.03954,92.1617 3.5,94.5C 3.56513,91.5718 4.2318,88.9052 5.5,86.5 Z"/></g>
<g><path style="opacity:1" fill="#fdf5d2" d="M 234.5,141.5 C 230.395,134.759 224.395,132.093 216.5,133.5C 220.239,133.001 223.906,132.001 227.5,130.5C 227.94,131.698 228.273,132.865 228.5,134C 229.951,133.737 231.284,133.904 232.5,134.5C 232.291,135.086 231.957,135.586 231.5,136C 233.607,137.264 234.607,139.097 234.5,141.5 Z"/></g>
<g><path style="opacity:1" fill="#fdc623" d="M 216.5,133.5 C 224.395,132.093 230.395,134.759 234.5,141.5C 234.5,141.833 234.5,142.167 234.5,142.5C 234.587,147.537 234.254,152.537 233.5,157.5C 232.463,158.93 231.796,160.597 231.5,162.5C 222.755,160.902 216.421,163.902 212.5,171.5C 211.355,175.311 211.188,179.311 212,183.5C 212.383,184.056 212.883,184.389 213.5,184.5C 215.177,186.54 216.844,188.54 218.5,190.5C 216.757,194.984 214.757,199.317 212.5,203.5C 208.786,207.883 205.453,212.55 202.5,217.5C 194.362,227.804 185.029,236.97 174.5,245C 169.637,245.809 164.97,245.142 160.5,243C 159.29,241.961 158.29,240.794 157.5,239.5C 155.701,235.097 155.034,230.43 155.5,225.5C 156.781,222.553 158.781,220.219 161.5,218.5C 166.167,215.833 169.833,212.167 172.5,207.5C 181.167,196.829 188.834,185.496 195.5,173.5C 196.975,172.738 198.309,172.405 199.5,172.5C 199.023,171.522 198.357,170.689 197.5,170C 199.155,168.556 199.822,166.722 199.5,164.5C 202.926,157.149 205.592,149.482 207.5,141.5C 209.806,139.861 211.806,137.861 213.5,135.5C 213.973,134.094 214.973,133.427 216.5,133.5 Z"/></g>
<g><path style="opacity:1" fill="#5fafef" d="M 405.5,151.5 C 405.993,145.985 403.993,141.819 399.5,139C 401.301,138.683 401.634,138.016 400.5,137C 396.867,135.972 393.367,135.472 390,135.5C 388.739,135.759 387.739,136.426 387,137.5C 386.586,137.043 386.086,136.709 385.5,136.5C 383.481,138.19 381.481,139.856 379.5,141.5C 383.344,132.917 389.677,130.417 398.5,134C 405.992,137.931 408.325,143.764 405.5,151.5 Z"/></g>
<g><path style="opacity:1" fill="#fcecab" d="M 213.5,135.5 C 211.806,137.861 209.806,139.861 207.5,141.5C 208.455,138.545 210.455,136.545 213.5,135.5 Z"/></g>
<g><path style="opacity:1" fill="#fdedb2" d="M 234.5,142.5 C 235.162,144.304 235.495,146.304 235.5,148.5C 235.657,151.814 234.991,154.814 233.5,157.5C 234.254,152.537 234.587,147.537 234.5,142.5 Z"/></g>
<g><path style="opacity:1" fill="#4ba9f6" d="M 405.5,151.5 C 405.292,155.121 404.292,158.454 402.5,161.5C 398.486,161.334 394.486,161.501 390.5,162C 388.68,162.2 387.347,163.034 386.5,164.5C 382.05,167.137 380.05,171.137 380.5,176.5C 379.881,182.79 382.214,187.457 387.5,190.5C 379.167,203.942 368.833,215.776 356.5,226C 346.685,230.84 339.518,228.34 335,218.5C 334.333,214.833 334.333,211.167 335,207.5C 355.243,189.1 370.077,167.1 379.5,141.5C 381.481,139.856 383.481,138.19 385.5,136.5C 386.086,136.709 386.586,137.043 387,137.5C 387.739,136.426 388.739,135.759 390,135.5C 393.367,135.472 396.867,135.972 400.5,137C 401.634,138.016 401.301,138.683 399.5,139C 403.993,141.819 405.993,145.985 405.5,151.5 Z"/></g>
<g><path style="opacity:1" fill="#f8fdeb" d="M 403.5,161.5 C 434.664,160.336 465.997,160.169 497.5,161C 499.437,161.122 500.77,161.955 501.5,163.5C 499.821,163.108 498.154,162.608 496.5,162C 465.502,161.5 434.502,161.333 403.5,161.5 Z"/></g>
<g><path style="opacity:1" fill="#3ca5c8" d="M 402.5,161.5 C 402.5,162.167 402.167,162.5 401.5,162.5C 396.341,162.182 391.341,162.848 386.5,164.5C 387.347,163.034 388.68,162.2 390.5,162C 394.486,161.501 398.486,161.334 402.5,161.5 Z"/></g>
<g><path style="opacity:1" fill="#2f9e93" d="M 401.5,162.5 C 398.895,171.877 394.561,180.377 388.5,188C 388.743,188.902 389.077,189.735 389.5,190.5C 388.833,190.5 388.167,190.5 387.5,190.5C 382.214,187.457 379.881,182.79 380.5,176.5C 380.05,171.137 382.05,167.137 386.5,164.5C 391.341,162.848 396.341,162.182 401.5,162.5 Z"/></g>
<g><path style="opacity:1" fill="#fb4a5c" d="M 231.5,162.5 C 263.168,162.333 294.835,162.5 326.5,163C 336.788,167.806 339.288,175.306 334,185.5C 332.127,187.709 329.96,189.542 327.5,191C 310.17,191.5 292.837,191.667 275.5,191.5C 275.167,191.5 274.833,191.5 274.5,191.5C 269.793,181.479 262.126,177.979 251.5,181C 248.165,183.846 245.832,187.346 244.5,191.5C 236.316,191.826 228.316,191.492 220.5,190.5C 224.678,181.461 228.344,172.128 231.5,162.5 Z"/></g>
<g><path style="opacity:1" fill="#49b86e" d="M 402.5,161.5 C 402.833,161.5 403.167,161.5 403.5,161.5C 434.502,161.333 465.502,161.5 496.5,162C 498.154,162.608 499.821,163.108 501.5,163.5C 509.038,169.375 510.538,176.708 506,185.5C 504.27,187.402 502.437,189.069 500.5,190.5C 481.88,191.474 463.213,191.808 444.5,191.5C 444.167,191.5 443.833,191.5 443.5,191.5C 437.752,181.301 429.418,178.467 418.5,183C 416.765,186.09 414.765,188.923 412.5,191.5C 405.5,191.5 398.5,191.5 391.5,191.5C 390.508,191.672 389.842,191.338 389.5,190.5C 389.077,189.735 388.743,188.902 388.5,188C 394.561,180.377 398.895,171.877 401.5,162.5C 402.167,162.5 402.5,162.167 402.5,161.5 Z"/></g>
<g><path style="opacity:1" fill="#fbd159" d="M 199.5,164.5 C 199.822,166.722 199.155,168.556 197.5,170C 198.357,170.689 199.023,171.522 199.5,172.5C 198.309,172.405 196.975,172.738 195.5,173.5C 196.083,170.053 197.416,167.053 199.5,164.5 Z"/></g>
<g><path style="opacity:1" fill="#f15730" d="M 231.5,162.5 C 228.344,172.128 224.678,181.461 220.5,190.5C 219.833,190.5 219.167,190.5 218.5,190.5C 216.844,188.54 215.177,186.54 213.5,184.5C 212.627,180.232 212.294,175.898 212.5,171.5C 216.421,163.902 222.755,160.902 231.5,162.5 Z"/></g>
<g><path style="opacity:1" fill="#ee7525" d="M 212.5,171.5 C 212.294,175.898 212.627,180.232 213.5,184.5C 212.883,184.389 212.383,184.056 212,183.5C 211.188,179.311 211.355,175.311 212.5,171.5 Z"/></g>
<g><path style="opacity:1" fill="#f25035" d="M 274.5,191.5 C 264.5,191.5 254.5,191.5 244.5,191.5C 245.832,187.346 248.165,183.846 251.5,181C 262.126,177.979 269.793,181.479 274.5,191.5 Z"/></g>
<g><path style="opacity:1" fill="#55a748" d="M 443.5,191.5 C 433.5,191.5 423.5,191.5 413.5,191.5C 413.167,191.5 412.833,191.5 412.5,191.5C 414.765,188.923 416.765,186.09 418.5,183C 429.418,178.467 437.752,181.301 443.5,191.5 Z"/></g>
<g><path style="opacity:1" fill="#f0f8d9" d="M 391.5,191.5 C 398.5,191.5 405.5,191.5 412.5,191.5C 412.833,191.5 413.167,191.5 413.5,191.5C 413.5,191.833 413.5,192.167 413.5,192.5C 413.629,194.216 413.962,195.883 414.5,197.5C 413.053,196.378 412.053,194.878 411.5,193C 404.654,192.828 397.987,192.328 391.5,191.5 Z"/></g>
<g><path style="opacity:1" fill="#e4cf3b" d="M 413.5,192.5 C 413.5,192.167 413.5,191.833 413.5,191.5C 423.5,191.5 433.5,191.5 443.5,191.5C 443.833,191.5 444.167,191.5 444.5,191.5C 444.5,192.167 444.5,192.833 444.5,193.5C 434.249,192.525 423.915,192.192 413.5,192.5 Z"/></g>
<g><path style="opacity:1" fill="#eefbe2" d="M 500.5,190.5 C 500.389,191.117 500.056,191.617 499.5,192C 481.836,192.5 464.17,192.667 446.5,192.5C 446.5,193.5 446.5,194.5 446.5,195.5C 445.833,194.833 445.167,194.167 444.5,193.5C 444.5,192.833 444.5,192.167 444.5,191.5C 463.213,191.808 481.88,191.474 500.5,190.5 Z"/></g>
<g><path style="opacity:1" fill="#fdc524" d="M 244.5,191.5 C 254.5,191.5 264.5,191.5 274.5,191.5C 274.833,191.5 275.167,191.5 275.5,191.5C 278.554,199.412 282.054,207.078 286,214.5C 286.818,217.227 286.652,219.894 285.5,222.5C 284.069,225.039 282.403,227.372 280.5,229.5C 269.508,234.096 261.508,231.096 256.5,220.5C 254.659,215.484 252.326,210.818 249.5,206.5C 248.917,203.053 247.584,200.053 245.5,197.5C 244.659,195.621 244.325,193.621 244.5,191.5 Z"/></g>
<g><path style="opacity:1" fill="#fdc622" d="M 413.5,192.5 C 423.915,192.192 434.249,192.525 444.5,193.5C 445.167,194.167 445.833,194.833 446.5,195.5C 448.5,199.5 450.5,203.5 452.5,207.5C 453.903,212.387 454.569,217.387 454.5,222.5C 452.788,226.542 449.788,229.208 445.5,230.5C 441.802,230.448 438.135,230.114 434.5,229.5C 431.909,228.746 430.076,227.079 429,224.5C 423.645,215.791 418.812,206.791 414.5,197.5C 413.962,195.883 413.629,194.216 413.5,192.5 Z"/></g>
<g><path style="opacity:1" fill="#fceba6" d="M 245.5,197.5 C 247.584,200.053 248.917,203.053 249.5,206.5C 248.069,205.097 246.902,203.431 246,201.5C 245.51,200.207 245.343,198.873 245.5,197.5 Z"/></g>
<g><path style="opacity:1" fill="#f7d467" d="M 172.5,207.5 C 169.833,212.167 166.167,215.833 161.5,218.5C 164.833,214.5 168.5,210.833 172.5,207.5 Z"/></g>
<g><path style="opacity:1" fill="#fef2cd" d="M 212.5,203.5 C 210.932,205.844 211.265,207.844 213.5,209.5C 212.609,210.59 211.609,210.59 210.5,209.5C 209.571,210.689 209.238,212.022 209.5,213.5C 206.697,213.961 204.363,215.295 202.5,217.5C 205.453,212.55 208.786,207.883 212.5,203.5 Z"/></g>
<g><path style="opacity:1" fill="#f5ce59" d="M 452.5,207.5 C 453.79,208.058 454.623,209.058 455,210.5C 455.812,214.689 455.645,218.689 454.5,222.5C 454.569,217.387 453.903,212.387 452.5,207.5 Z"/></g>
<g><path style="opacity:1" fill="#fdf4d4" d="M 256.5,220.5 C 261.508,231.096 269.508,234.096 280.5,229.5C 279.047,230.825 279.381,231.658 281.5,232C 276.5,232.667 271.5,232.667 266.5,232C 264.273,231.879 262.44,231.046 261,229.5C 260.035,231.26 258.868,231.594 257.5,230.5C 258.167,229.833 258.833,229.167 259.5,228.5C 257.784,228.003 256.117,227.669 254.5,227.5C 255.09,226.201 256.09,225.368 257.5,225C 256.62,223.644 256.286,222.144 256.5,220.5 Z"/></g>
<g><path style="opacity:1" fill="#f9d87c" d="M 434.5,229.5 C 438.135,230.114 441.802,230.448 445.5,230.5C 441.71,231.902 438.044,231.569 434.5,229.5 Z"/></g>
<g><path style="opacity:1" fill="#ed6670" d="M 268.5,236.5 C 254.728,235.973 241.061,236.639 227.5,238.5C 229.277,237.4 231.277,236.566 233.5,236C 245.341,235.174 257.007,235.341 268.5,236.5 Z"/></g>
<g><path style="opacity:1" fill="#fce9ad" d="M 155.5,225.5 C 155.034,230.43 155.701,235.097 157.5,239.5C 156.542,239.047 155.708,238.381 155,237.5C 154.188,233.311 154.355,229.311 155.5,225.5 Z"/></g>
<g><path style="opacity:1" fill="#4983f6" d="M 469.5,270.5 C 469.682,273.622 468.682,276.289 466.5,278.5C 467.557,278.906 468.891,278.906 470.5,278.5C 470.667,293.17 470.5,307.837 470,322.5C 469.415,324.661 468.582,326.661 467.5,328.5C 466.547,330.61 464.881,331.777 462.5,332C 457.219,332.974 452.219,332.307 447.5,330C 445.746,328.064 444.079,326.23 442.5,324.5C 442.667,308.83 442.5,293.163 442,277.5C 441.768,276.263 441.268,275.263 440.5,274.5C 439.559,272.228 438.226,270.228 436.5,268.5C 436.047,267.542 435.381,266.708 434.5,266C 434.833,265.667 435.167,265.333 435.5,265C 432.748,264.788 430.248,263.955 428,262.5C 387.862,263.658 347.696,263.825 307.5,263C 304.793,262.605 302.127,262.105 299.5,261.5C 293.546,256.867 291.88,250.867 294.5,243.5C 296.436,240.34 299.103,237.84 302.5,236C 345.5,235.333 388.5,235.333 431.5,236C 451.349,239.686 464.016,251.186 469.5,270.5 Z"/></g>
<g><path style="opacity:1" fill="#dfe4f7" d="M 294.5,243.5 C 291.88,250.867 293.546,256.867 299.5,261.5C 299.5,261.833 299.5,262.167 299.5,262.5C 297.914,261.587 296.414,261.587 295,262.5C 292.686,256.757 292.019,250.757 293,244.5C 293.383,243.944 293.883,243.611 294.5,243.5 Z"/></g>
<g><path style="opacity:1" fill="#6693eb" d="M 299.5,262.5 C 299.5,262.167 299.5,261.833 299.5,261.5C 302.127,262.105 304.793,262.605 307.5,263C 347.696,263.825 387.862,263.658 428,262.5C 430.248,263.955 432.748,264.788 435.5,265C 435.167,265.333 434.833,265.667 434.5,266C 435.381,266.708 436.047,267.542 436.5,268.5C 434.22,267.36 431.886,266.193 429.5,265C 387.167,264.667 344.833,264.333 302.5,264C 301.473,263.487 300.473,262.987 299.5,262.5 Z"/></g>
<g><path style="opacity:1" fill="#fdc622" d="M 226.5,280.5 C 226.833,280.5 227.167,280.5 227.5,280.5C 290.834,280.333 354.168,280.5 417.5,281C 427.13,287.005 428.964,294.838 423,304.5C 421.075,305.88 419.241,307.38 417.5,309C 353.834,309.5 290.168,309.667 226.5,309.5C 226.5,299.833 226.5,290.167 226.5,280.5 Z"/></g>
<g><path style="opacity:1" fill="#fb4b5c" d="M 268.5,236.5 C 276.856,239.207 280.022,244.874 278,253.5C 276.594,258.573 273.428,262.073 268.5,264C 258.5,264.333 248.5,264.667 238.5,265C 231.477,267.846 227.81,273.013 227.5,280.5C 227.167,280.5 226.833,280.5 226.5,280.5C 224.473,280.338 222.473,280.505 220.5,281C 211.423,287.837 210.09,296.003 216.5,305.5C 219.601,307.422 222.934,308.756 226.5,309.5C 226.5,314.833 226.5,320.167 226.5,325.5C 213.867,327.747 209.701,335.08 214,347.5C 215.973,349.228 217.806,351.061 219.5,353C 221.677,354.202 224.011,354.702 226.5,354.5C 226.833,354.5 227.167,354.5 227.5,354.5C 228.084,363.255 232.751,368.422 241.5,370C 245.833,370.333 250.167,370.667 254.5,371C 256.093,371.949 257.426,373.115 258.5,374.5C 258.5,375.167 258.5,375.833 258.5,376.5C 255.937,378.612 254.104,381.279 253,384.5C 252.501,389.489 252.334,394.489 252.5,399.5C 246.741,399.786 241.075,399.452 235.5,398.5C 233.485,397.076 231.152,396.41 228.5,396.5C 211.603,390.268 201.603,378.268 198.5,360.5C 197.535,333.192 197.201,305.859 197.5,278.5C 200.258,259.618 210.258,246.284 227.5,238.5C 241.061,236.639 254.728,235.973 268.5,236.5 Z"/></g>
<g><path style="opacity:1" fill="#f15232" d="M 226.5,280.5 C 226.5,290.167 226.5,299.833 226.5,309.5C 222.934,308.756 219.601,307.422 216.5,305.5C 210.09,296.003 211.423,287.837 220.5,281C 222.473,280.505 224.473,280.338 226.5,280.5 Z"/></g>
<g><path style="opacity:1" fill="#5a8bea" d="M 469.5,270.5 C 471.011,273.544 471.678,276.878 471.5,280.5C 471.5,294.833 471.5,309.167 471.5,323.5C 470.71,324.609 470.21,325.942 470,327.5C 469.329,328.252 468.496,328.586 467.5,328.5C 468.582,326.661 469.415,324.661 470,322.5C 470.5,307.837 470.667,293.17 470.5,278.5C 468.891,278.906 467.557,278.906 466.5,278.5C 468.682,276.289 469.682,273.622 469.5,270.5 Z"/></g>
<g><path style="opacity:1" fill="#fed9d4" d="M 197.5,278.5 C 197.201,305.859 197.535,333.192 198.5,360.5C 197.732,359.737 197.232,358.737 197,357.5C 196.17,330.997 196.337,304.663 197.5,278.5 Z"/></g>
<g><path style="opacity:1" fill="#f4c942" d="M 227.5,325.5 C 290.834,325.333 354.168,325.5 417.5,326C 418.056,326.383 418.389,326.883 418.5,327.5C 354.694,326.844 291.027,326.177 227.5,325.5 Z"/></g>
<g><path style="opacity:1" fill="#fdc522" d="M 226.5,325.5 C 226.833,325.5 227.167,325.5 227.5,325.5C 291.027,326.177 354.694,326.844 418.5,327.5C 425.539,330.582 428.039,335.916 426,343.5C 424.376,348.944 420.876,352.444 415.5,354C 352.834,354.5 290.168,354.667 227.5,354.5C 227.167,354.5 226.833,354.5 226.5,354.5C 226.5,344.833 226.5,335.167 226.5,325.5 Z"/></g>
<g><path style="opacity:1" fill="#f25034" d="M 226.5,325.5 C 226.5,335.167 226.5,344.833 226.5,354.5C 224.011,354.702 221.677,354.202 219.5,353C 217.806,351.061 215.973,349.228 214,347.5C 209.701,335.08 213.867,327.747 226.5,325.5 Z"/></g>
<g><path style="opacity:1" fill="#49a9f6" d="M 471.5,323.5 C 472.031,337.605 471.365,351.605 469.5,365.5C 462.755,384.895 449.088,395.895 428.5,398.5C 423.57,386.864 415.57,384.031 404.5,390C 402.444,392.614 400.777,395.447 399.5,398.5C 383.325,398.83 367.325,398.496 351.5,397.5C 354.167,396.833 355.833,395.167 356.5,392.5C 356.557,391.391 356.89,390.391 357.5,389.5C 358.161,387.866 358.494,386.033 358.5,384C 358.7,381.134 358.033,378.634 356.5,376.5C 355.797,374.284 354.464,372.451 352.5,371C 377.67,370.832 402.67,370.332 427.5,369.5C 435.194,367.806 439.86,363.14 441.5,355.5C 442.494,345.347 442.828,335.014 442.5,324.5C 444.079,326.23 445.746,328.064 447.5,330C 452.219,332.307 457.219,332.974 462.5,332C 464.881,331.777 466.547,330.61 467.5,328.5C 468.496,328.586 469.329,328.252 470,327.5C 470.21,325.942 470.71,324.609 471.5,323.5 Z"/></g>
<g><path style="opacity:1" fill="#cfe6fb" d="M 471.5,280.5 C 472.664,306.997 472.83,333.664 472,360.5C 471.243,362.315 470.41,363.981 469.5,365.5C 471.365,351.605 472.031,337.605 471.5,323.5C 471.5,309.167 471.5,294.833 471.5,280.5 Z"/></g>
<g><path style="opacity:1" fill="#ddebfa" d="M 440.5,274.5 C 441.268,275.263 441.768,276.263 442,277.5C 442.5,293.163 442.667,308.83 442.5,324.5C 442.828,335.014 442.494,345.347 441.5,355.5C 441.798,328.475 441.465,301.475 440.5,274.5 Z"/></g>
<g><path style="opacity:1" fill="#71c188" d="M 348.5,369.5 C 348.5,369.833 348.5,370.167 348.5,370.5C 321.831,370.333 295.165,370.5 268.5,371C 267.095,372.269 265.429,372.769 263.5,372.5C 264.347,371.034 265.68,370.2 267.5,370C 294.498,369.5 321.498,369.333 348.5,369.5 Z"/></g>
<g><path style="opacity:1" fill="#6fb3e6" d="M 348.5,370.5 C 348.5,370.167 348.5,369.833 348.5,369.5C 374.833,369.5 401.167,369.5 427.5,369.5C 402.67,370.332 377.67,370.832 352.5,371C 354.464,372.451 355.797,374.284 356.5,376.5C 354.116,374.115 351.45,372.115 348.5,370.5 Z"/></g>
<g><path style="opacity:1" fill="#46b76c" d="M 348.5,370.5 C 351.45,372.115 354.116,374.115 356.5,376.5C 357.2,380.798 357.533,385.131 357.5,389.5C 356.89,390.391 356.557,391.391 356.5,392.5C 353.118,395.39 349.452,397.724 345.5,399.5C 324.167,399.5 302.833,399.5 281.5,399.5C 281.536,408.185 281.203,416.851 280.5,425.5C 280.5,426.5 280.5,427.5 280.5,428.5C 270.5,428.5 260.5,428.5 250.5,428.5C 251.768,418.882 252.435,409.216 252.5,399.5C 262.947,396.81 266.447,390.143 263,379.5C 262.8,376.097 261.3,375.097 258.5,376.5C 258.5,375.833 258.5,375.167 258.5,374.5C 260.284,374.107 261.95,373.441 263.5,372.5C 265.429,372.769 267.095,372.269 268.5,371C 295.165,370.5 321.831,370.333 348.5,370.5 Z"/></g>
<g><path style="opacity:1" fill="#45b0a2" d="M 356.5,376.5 C 358.033,378.634 358.7,381.134 358.5,384C 358.494,386.033 358.161,387.866 357.5,389.5C 357.533,385.131 357.2,380.798 356.5,376.5 Z"/></g>
<g><path style="opacity:1" fill="#509946" d="M 252.5,399.5 C 252.334,394.489 252.501,389.489 253,384.5C 254.104,381.279 255.937,378.612 258.5,376.5C 261.3,375.097 262.8,376.097 263,379.5C 266.447,390.143 262.947,396.81 252.5,399.5 Z"/></g>
<g><path style="opacity:1" fill="#3893cb" d="M 428.5,398.5 C 418.833,398.5 409.167,398.5 399.5,398.5C 400.777,395.447 402.444,392.614 404.5,390C 415.57,384.031 423.57,386.864 428.5,398.5 Z"/></g>
<g><path style="opacity:1" fill="#f39292" d="M 228.5,396.5 C 231.152,396.41 233.485,397.076 235.5,398.5C 232.848,398.59 230.515,397.924 228.5,396.5 Z"/></g>
<g><path style="opacity:1" fill="#64bdb9" d="M 356.5,392.5 C 355.833,395.167 354.167,396.833 351.5,397.5C 350.5,397.833 349.833,398.5 349.5,399.5C 348.167,399.5 346.833,399.5 345.5,399.5C 349.452,397.724 353.118,395.39 356.5,392.5 Z"/></g>
<g><path style="opacity:1" fill="#75bcda" d="M 351.5,397.5 C 367.325,398.496 383.325,398.83 399.5,398.5C 409.167,398.5 418.833,398.5 428.5,398.5C 428.5,398.833 428.5,399.167 428.5,399.5C 418.833,399.5 409.167,399.5 399.5,399.5C 382.833,399.5 366.167,399.5 349.5,399.5C 349.833,398.5 350.5,397.833 351.5,397.5 Z"/></g>
<g><path style="opacity:1" fill="#e8f9e1" d="M 345.5,399.5 C 324.974,400.2 304.307,400.867 283.5,401.5C 283.765,409.793 282.765,417.793 280.5,425.5C 281.203,416.851 281.536,408.185 281.5,399.5C 302.833,399.5 324.167,399.5 345.5,399.5 Z"/></g>
<g><path style="opacity:1" fill="#fdf6eb" d="M 345.5,399.5 C 346.833,399.5 348.167,399.5 349.5,399.5C 366.167,399.5 382.833,399.5 399.5,399.5C 399.5,409.167 399.5,418.833 399.5,428.5C 359.833,428.5 320.167,428.5 280.5,428.5C 280.5,427.5 280.5,426.5 280.5,425.5C 282.765,417.793 283.765,409.793 283.5,401.5C 304.307,400.867 324.974,400.2 345.5,399.5 Z"/></g>
<g><path style="opacity:1" fill="#4ab66d" d="M 399.5,399.5 C 409.167,399.5 418.833,399.5 428.5,399.5C 428.5,409.5 428.5,419.5 428.5,429.5C 418.833,429.5 409.167,429.5 399.5,429.5C 399.5,429.167 399.5,428.833 399.5,428.5C 399.5,418.833 399.5,409.167 399.5,399.5 Z"/></g>
<g><path style="opacity:1" fill="#e65660" d="M 399.5,430.5 C 399.5,430.167 399.5,429.833 399.5,429.5C 409.167,429.5 418.833,429.5 428.5,429.5C 451.836,429.333 475.169,429.5 498.5,430C 499.416,430.278 500.082,430.778 500.5,431.5C 476.526,430.54 452.526,430.206 428.5,430.5C 418.833,430.5 409.167,430.5 399.5,430.5 Z"/></g>
<g><path style="opacity:1" fill="#fb495c" d="M 399.5,429.5 C 399.5,429.833 399.5,430.167 399.5,430.5C 399.5,439.5 399.5,448.5 399.5,457.5C 357.167,457.5 314.833,457.5 272.5,457.5C 272.495,453.466 272.162,449.466 271.5,445.5C 268.509,444.903 265.843,443.57 263.5,441.5C 260.554,440.345 257.554,440.179 254.5,441C 248.438,445.56 244.105,451.393 241.5,458.5C 241.167,458.5 240.833,458.5 240.5,458.5C 214.831,458.667 189.165,458.5 163.5,458C 154.711,452.29 152.544,444.79 157,435.5C 158.873,433.291 161.04,431.458 163.5,430C 242.166,429.5 320.833,429.333 399.5,429.5 Z"/></g>
<g><path style="opacity:1" fill="#fc485b" d="M 428.5,430.5 C 452.526,430.206 476.526,430.54 500.5,431.5C 506.121,433.382 508.788,437.382 508.5,443.5C 508.585,450.68 505.251,455.347 498.5,457.5C 475.167,457.5 451.833,457.5 428.5,457.5C 428.5,448.5 428.5,439.5 428.5,430.5 Z"/></g>
<g><path style="opacity:1" fill="#da3b4d" d="M 399.5,430.5 C 409.167,430.5 418.833,430.5 428.5,430.5C 428.5,439.5 428.5,448.5 428.5,457.5C 418.833,457.5 409.167,457.5 399.5,457.5C 399.5,448.5 399.5,439.5 399.5,430.5 Z"/></g>
<g><path style="opacity:1" fill="#da5168" d="M 399.5,457.5 C 409.167,457.5 418.833,457.5 428.5,457.5C 451.833,457.5 475.167,457.5 498.5,457.5C 475.339,458.498 452.006,458.831 428.5,458.5C 418.833,458.5 409.167,458.5 399.5,458.5C 357.167,458.5 314.833,458.5 272.5,458.5C 262.167,458.5 251.833,458.5 241.5,458.5C 244.105,451.393 248.438,445.56 254.5,441C 257.554,440.179 260.554,440.345 263.5,441.5C 265.843,443.57 268.509,444.903 271.5,445.5C 272.162,449.466 272.495,453.466 272.5,457.5C 314.833,457.5 357.167,457.5 399.5,457.5 Z"/></g>
<g><path style="opacity:1" fill="#4caaf7" d="M 240.5,458.5 C 240.833,458.5 241.167,458.5 241.5,458.5C 251.833,458.5 262.167,458.5 272.5,458.5C 261.589,486.245 242.589,506.412 215.5,519C 206.347,523.157 196.847,526.324 187,528.5C 183.871,528.671 181.037,527.838 178.5,526C 170.272,517.368 170.605,509.034 179.5,501C 199.225,495.992 216.392,486.492 231,472.5C 234.434,467.949 237.601,463.282 240.5,458.5 Z"/></g>
<g><path style="opacity:1" fill="#47b66c" d="M 399.5,458.5 C 409.167,458.5 418.833,458.5 428.5,458.5C 428.667,479.836 428.5,501.169 428,522.5C 423.144,530.007 416.311,532.84 407.5,531C 404.238,528.408 401.738,525.241 400,521.5C 399.5,500.503 399.333,479.503 399.5,458.5 Z"/></g>
<g><path style="opacity:0.624" fill="#8a8781" d="M 662.5,556.5 C 662.322,563.093 661.322,569.426 659.5,575.5C 659.776,568.92 660.776,562.587 662.5,556.5 Z"/></g>
<g><path style="opacity:0.631" fill="#86837b" d="M 658.5,580.5 C 657.922,585.165 656.589,589.499 654.5,593.5C 655.061,588.824 656.394,584.491 658.5,580.5 Z"/></g>
<g><path style="opacity:1" fill="#b4b0a9" d="M 7.5,589.5 C 10.295,590.358 10.9617,592.358 9.5,595.5C 8.26162,593.786 7.59495,591.786 7.5,589.5 Z"/></g>
<g><path style="opacity:0.157" fill="#6b6764" d="M 9.5,595.5 C 10.9313,596.78 11.5979,598.447 11.5,600.5C 10.0687,599.22 9.40206,597.553 9.5,595.5 Z"/></g>
<g><path style="opacity:0.384" fill="#77746b" d="M 653.5,596.5 C 653.34,598.153 652.674,599.486 651.5,600.5C 651.229,598.62 651.896,597.287 653.5,596.5 Z"/></g>
<g><path style="opacity:0.933" fill="#8a8681" d="M 21.5,618.5 C 23.4456,619.035 24.4456,620.368 24.5,622.5C 23.0256,621.564 22.0256,620.23 21.5,618.5 Z"/></g>
<g><path style="opacity:0.02" fill="#797671" d="M 638.5,622.5 C 638.573,624.027 637.906,625.027 636.5,625.5C 636.427,623.973 637.094,622.973 638.5,622.5 Z"/></g>
<g><path style="opacity:0.035" fill="#6e6b64" d="M 634.5,627.5 C 634.262,629.404 633.262,630.738 631.5,631.5C 631.738,629.596 632.738,628.262 634.5,627.5 Z"/></g>
<g><path style="opacity:0.008" fill="#63615a" d="M 32.5,631.5 C 33.5,631.833 34.1667,632.5 34.5,633.5C 33.1667,633.5 32.5,632.833 32.5,631.5 Z"/></g>
<g><path style="opacity:0.004" fill="#5f5d57" d="M 34.5,633.5 C 35.5,633.833 36.1667,634.5 36.5,635.5C 35.1667,635.5 34.5,634.833 34.5,633.5 Z"/></g>
<g><path style="opacity:0.004" fill="#56564f" d="M 36.5,635.5 C 37.5,635.833 38.1667,636.5 38.5,637.5C 37.1667,637.5 36.5,636.833 36.5,635.5 Z"/></g>
<g><path style="opacity:0.012" fill="#6e6b69" d="M 627.5,635.5 C 626.415,637.587 624.749,638.92 622.5,639.5C 623.585,637.413 625.251,636.08 627.5,635.5 Z"/></g>
<g><path style="opacity:0.831" fill="#989590" d="M 40.5,639.5 C 42.4044,639.738 43.7377,640.738 44.5,642.5C 42.5956,642.262 41.2623,641.262 40.5,639.5 Z"/></g>
<g><path style="opacity:0.012" fill="#706e66" d="M 619.5,642.5 C 619.027,643.906 618.027,644.573 616.5,644.5C 616.973,643.094 617.973,642.427 619.5,642.5 Z"/></g>
<g><path style="opacity:1" fill="#c9c4bf" d="M 44.5,642.5 C 46.921,643.891 49.5877,644.725 52.5,645C 51.8333,645.333 51.1667,645.667 50.5,646C 51.3805,646.708 52.0472,647.542 52.5,648.5C 49.4669,646.984 46.8003,644.984 44.5,642.5 Z"/></g>
<g><path style="opacity:0.196" fill="#898680" d="M 52.5,648.5 C 54.0269,648.427 55.0269,649.094 55.5,650.5C 53.9731,650.573 52.9731,649.906 52.5,648.5 Z"/></g>
<g><path style="opacity:0.325" fill="#827f7a" d="M 57.5,651.5 C 59.674,651.75 61.3406,652.75 62.5,654.5C 60.326,654.25 58.6594,653.25 57.5,651.5 Z"/></g>
<g><path style="opacity:1" fill="#aeaba5" d="M 598.5,655.5 C 595.912,657.625 592.912,658.958 589.5,659.5C 590.6,658.442 591.934,657.608 593.5,657C 593.167,656.667 592.833,656.333 592.5,656C 594.473,655.505 596.473,655.338 598.5,655.5 Z"/></g>
<g><path style="opacity:0.851" fill="#a09c95" d="M 71.5,658.5 C 74.6489,658.415 77.3155,659.415 79.5,661.5C 76.4582,661.267 73.7916,660.267 71.5,658.5 Z"/></g>
<g><path style="opacity:0.733" fill="#aca9a3" d="M 79.5,661.5 C 82.2282,661.171 84.5615,661.837 86.5,663.5C 83.8478,663.59 81.5145,662.924 79.5,661.5 Z"/></g>
<g><path style="opacity:0.773" fill="#a4a19b" d="M 86.5,663.5 C 91.1201,663.74 95.4535,664.74 99.5,666.5C 94.8303,666.489 90.4969,665.489 86.5,663.5 Z"/></g>
<g><path style="opacity:0.2" fill="#827e7e" d="M 584.5,661.5 C 581.45,663.101 578.116,664.101 574.5,664.5C 577.452,662.59 580.786,661.59 584.5,661.5 Z"/></g>
<g><path style="opacity:1" fill="#fffef7" d="M 535.5,668.5 C 399.833,668.5 264.167,668.5 128.5,668.5C 169.665,667.667 210.998,667.167 252.5,667C 253,666.5 253.5,666 254,665.5C 347.79,667.164 441.623,668.164 535.5,668.5 Z"/></g>
<g><path style="opacity:0.549" fill="#928e8a" d="M 99.5,666.5 C 109.156,667.314 118.823,667.98 128.5,668.5C 264.167,668.5 399.833,668.5 535.5,668.5C 545.176,667.954 554.842,667.287 564.5,666.5C 558.863,667.697 553.196,668.697 547.5,669.5C 403.5,669.5 259.5,669.5 115.5,669.5C 110.144,668.645 104.811,667.645 99.5,666.5 Z"/></g>
</svg>
